# xmcd
#
# Track frame offsets:
#	150
#	13581
#	28192
#	41319
#	52681
#	66629
#	78286
#	90410
#	105363
#	119046
#	132346
#	146671
#	157771
#	176000
#	191222
#	206183
#	220693
#	235484
#	249153
#	262630
#	276632
#	289218
#	300536
#	312629
#	324837
#	339174
#
# Disc length: 4712 seconds
#
# Revision: 0
# Processed by: cddbd v1.5.2PL0 Copyright (c) Steve Scherf et al.
# Submitted via: FairStars CD Ripper 1.80
#
DISCID=7312661a
DTITLE=Various Artist - Out of many, One music cd1
DYEAR=2015
DGENRE=Oldies
TTITLE0=Fisk University Jubilee Singers - Swing Low, Sweet Chariot
TTITLE1=Ma Rainey - See See Rider Blues
TTITLE2=Rita Montaner - El Manisero
TTITLE3=Ernesto Lecuona - Karabali
TTITLE4=Barney Bigard - Caravan
TTITLE5=Harlem Hamfats - Oh! Red
TTITLE6=The Ink Spots - Do I Worry?
TTITLE7=Duke Ellington - In A Mellotone
TTITLE8=Xavier Cugat - Perfidia
TTITLE9=Duke Ellington - Take The A Train
TTITLE10=Cab Calloway - Blues In The Night
TTITLE11=The King Cole Trio - Straighten Up And Fly Right
TTITLE12=Big Sid Catlett Quartet and Ben Webster - Just A Riff
TTITLE13=Erskine Hawkins - Tippin In
TTITLE14=Charlie Parker - Now's The Time
TTITLE15=The Andrews Sisters - Rum And Coca-Cola
TTITLE16=Buddy and Ella Johnson - Since I Fell For You
TTITLE17=The Ink Spots - Prisoner Of Love
TTITLE18=The Ravens - Ol Man River
TTITLE19=Bobby Capo - Quizas, Quizas
TTITLE20=African Dance Band of The Cold Storage Commission - Skokiaan
TTITLE21=Charlie Parker - Barbados
TTITLE22=Steve Gibson and The Redcaps - I Want A Roof Over My Head
TTITLE23=John Greer - Got You On My Mind
TTITLE24=The Five Keys - The Glory Of Love
TTITLE25=Eddie Davis - I Only Have Eyes For You
EXTD=
EXTT0=
EXTT1=
EXTT2=
EXTT3=
EXTT4=
EXTT5=
EXTT6=
EXTT7=
EXTT8=
EXTT9=
EXTT10=
EXTT11=
EXTT12=
EXTT13=
EXTT14=
EXTT15=
EXTT16=
EXTT17=
EXTT18=
EXTT19=
EXTT20=
EXTT21=
EXTT22=
EXTT23=
EXTT24=
EXTT25=
PLAYORDER=
